<svg xmlns="http://www.w3.org/2000/svg" fill="none" viewBox="0 0 84 84"><g clip-path="url(#OpIcon_svg__a)"><path fill="#ff0420" d="M42 84c23.196 0 42-18.804 42-42S65.196 0 42 0 0 18.804 0 42s18.804 42 42 42"></path><path fill="#fff" d="M30.461 53.76q-3.8 0-6.226-1.83-2.395-1.861-2.395-5.291 0-.72.16-1.764.414-2.352 1.181-5.651 2.171-8.984 11.208-8.984 2.46 0 4.407.85 1.947.817 3.065 2.482 1.118 1.635 1.118 3.92 0 .687-.16 1.732a76 76 0 0 1-1.15 5.65q-1.116 4.476-3.863 6.697-2.747 2.19-7.345 2.19Zm.448-4.704q1.788 0 3.033-1.078 1.277-1.077 1.82-3.3.735-3.07 1.118-5.356.127-.687.127-1.405 0-2.973-3.033-2.973-1.788 0-3.065 1.078-1.245 1.078-1.789 3.3-.574 2.188-1.15 5.357a7 7 0 0 0-.127 1.372q0 3.005 3.066 3.005m13.536 4.377q-.351 0-.543-.229a.8.8 0 0 1-.096-.588l4.407-21.233a.94.94 0 0 1 .351-.588.96.96 0 0 1 .607-.229h8.494q3.544 0 5.684 1.503 2.17 1.503 2.171 4.345a8 8 0 0 1-.192 1.698q-.798 3.757-3.225 5.554-2.395 1.797-6.578 1.797h-4.31l-1.47 7.153a.94.94 0 0 1-.35.588.96.96 0 0 1-.607.23zm11.304-12.478q1.34 0 2.33-.752 1.023-.751 1.342-2.156.096-.555.096-.98 0-.947-.543-1.437-.544-.523-1.852-.523H53.29l-1.213 5.848z"></path></g><defs><clipPath id="OpIcon_svg__a"><path fill="#fff" d="M0 0h84v84H0z"></path></clipPath></defs></svg>